<?xml version="1.0" encoding="UTF-8"?>
<svg xmlns="http://www.w3.org/2000/svg" xmlns:xlink="http://www.w3.org/1999/xlink" width="300px" height="90px" viewBox="0 0 300 90" version="1.1">
<defs>
<clipPath id="clip1">
  <rect x="0" y="0" width="300" height="90"/>
</clipPath>
<g id="surface5" clip-path="url(#clip1)">
<path style=" stroke:none;fill-rule:evenodd;fill:rgb(17.254902%,58.431375%,52.156866%);fill-opacity:1;" d="M 112.414062 2.191406 C 118.855469 2.191406 125.300781 2.191406 131.742188 2.191406 C 127.71875 26.175781 123.726562 50.160156 119.769531 74.148438 C 113.328125 74.148438 106.882812 74.148438 100.441406 74.148438 C 100.617188 72.789062 100.847656 71.433594 101.125 70.085938 C 100.082031 70.675781 99.027344 71.273438 97.960938 71.886719 C 91.011719 75.332031 83.628906 76.191406 75.8125 74.472656 C 68.15625 72.410156 62.953125 68.207031 60.207031 61.855469 C 58.527344 57.585938 58.070312 53.226562 58.835938 48.773438 C 60.382812 39.640625 65.527344 32.34375 74.273438 26.886719 C 80.453125 23.238281 87.324219 21.632812 94.882812 22.070312 C 100.050781 22.457031 104.496094 24.144531 108.222656 27.136719 C 109.644531 18.824219 111.042969 10.511719 112.414062 2.191406 Z M 92.660156 37.703125 C 96.039062 37.519531 99.003906 38.347656 101.554688 40.183594 C 104.085938 42.453125 105.15625 45.148438 104.761719 48.269531 C 103.945312 53.148438 100.878906 56.613281 95.566406 58.65625 C 92.046875 59.84375 88.511719 59.890625 84.964844 58.800781 C 81.394531 57.382812 79.328125 55.019531 78.761719 51.722656 C 78.289062 46.589844 80.554688 42.578125 85.5625 39.679688 C 87.75 38.550781 90.117188 37.894531 92.660156 37.703125 Z M 92.660156 37.703125 "/>
</g>
<clipPath id="clip2">
  <rect x="0" y="0" width="300" height="90"/>
</clipPath>
<g id="surface8" clip-path="url(#clip2)">
<path style=" stroke:none;fill-rule:evenodd;fill:rgb(17.254902%,58.431375%,52.156866%);fill-opacity:1;" d="M 181.171875 2.191406 C 187.613281 2.179688 194.058594 2.191406 200.5 2.226562 C 196.46875 26.148438 192.464844 50.074219 188.484375 74.003906 C 185.265625 74.101562 182.03125 74.148438 178.777344 74.148438 C 175.554688 74.125 172.335938 74.101562 169.113281 74.078125 C 169.394531 72.742188 169.609375 71.398438 169.753906 70.050781 C 162.441406 74.835938 154.246094 76.359375 145.167969 74.617188 C 137.90625 72.898438 132.734375 69.148438 129.648438 63.367188 C 127.535156 59.027344 126.792969 54.519531 127.421875 49.851562 C 128.511719 41.613281 132.628906 34.675781 139.78125 29.042969 C 145.460938 24.761719 152.132812 22.414062 159.792969 21.996094 C 166.40625 21.660156 172.121094 23.375 176.9375 27.136719 C 178.371094 18.824219 179.78125 10.507812 181.171875 2.191406 Z M 161.332031 37.703125 C 164.269531 37.554688 166.949219 38.164062 169.371094 39.535156 C 172.1875 41.496094 173.582031 44.023438 173.558594 47.121094 C 173.28125 51.84375 170.773438 55.449219 166.035156 57.9375 C 162.078125 59.777344 157.972656 60.0625 153.71875 58.800781 C 149.90625 57.292969 147.8125 54.765625 147.433594 51.21875 C 147.234375 46.003906 149.757812 42.039062 155.003906 39.320312 C 156.992188 38.421875 159.101562 37.882812 161.332031 37.703125 Z M 161.332031 37.703125 "/>
</g>
<filter id="alpha" filterUnits="objectBoundingBox" x="0%" y="0%" width="100%" height="100%">
  <feColorMatrix type="matrix" in="SourceGraphic" values="0 0 0 0 1 0 0 0 0 1 0 0 0 0 1 0 0 0 1 0"/>
</filter>
<mask id="mask0">
  <g filter="url(#alpha)">
<rect x="0" y="0" width="300" height="90" style="fill:rgb(0%,0%,0%);fill-opacity:0.988;stroke:none;"/>
  </g>
</mask>
<clipPath id="clip3">
  <rect x="0" y="0" width="300" height="90"/>
</clipPath>
<g id="surface11" clip-path="url(#clip3)">
<path style=" stroke:none;fill-rule:evenodd;fill:rgb(92.941177%,45.490196%,18.82353%);fill-opacity:1;" d="M 80.429688 4.925781 C 82.648438 4.769531 84.0625 5.585938 84.664062 7.367188 C 84.882812 9.195312 83.957031 10.382812 81.882812 10.925781 C 79.648438 11.167969 78.210938 10.390625 77.566406 8.589844 C 77.28125 6.667969 78.238281 5.445312 80.429688 4.925781 Z M 80.429688 4.925781 "/>
</g>
<mask id="mask1">
  <g filter="url(#alpha)">
<rect x="0" y="0" width="300" height="90" style="fill:rgb(0%,0%,0%);fill-opacity:0.987;stroke:none;"/>
  </g>
</mask>
<clipPath id="clip4">
  <rect x="0" y="0" width="300" height="90"/>
</clipPath>
<g id="surface14" clip-path="url(#clip4)">
<path style=" stroke:none;fill-rule:evenodd;fill:rgb(92.941177%,45.490196%,18.82353%);fill-opacity:1;" d="M 68.972656 5.859375 C 71.226562 5.699219 72.636719 6.535156 73.203125 8.375 C 73.371094 10.511719 72.1875 11.710938 69.65625 11.96875 C 67.867188 11.890625 66.683594 11.148438 66.105469 9.742188 C 65.757812 7.75 66.714844 6.453125 68.972656 5.859375 Z M 68.972656 5.859375 "/>
</g>
<mask id="mask2">
  <g filter="url(#alpha)">
<rect x="0" y="0" width="300" height="90" style="fill:rgb(0%,0%,0%);fill-opacity:0.983;stroke:none;"/>
  </g>
</mask>
<clipPath id="clip5">
  <rect x="0" y="0" width="300" height="90"/>
</clipPath>
<g id="surface17" clip-path="url(#clip5)">
<path style=" stroke:none;fill-rule:evenodd;fill:rgb(92.941177%,45.490196%,18.82353%);fill-opacity:1;" d="M 92.230469 7.082031 C 94.398438 7.21875 95.410156 8.203125 95.269531 10.027344 C 94.699219 11.472656 93.519531 12.082031 91.71875 11.859375 C 90.386719 11.46875 89.675781 10.679688 89.582031 9.488281 C 89.773438 8.140625 90.660156 7.335938 92.230469 7.082031 Z M 92.230469 7.082031 "/>
</g>
<mask id="mask3">
  <g filter="url(#alpha)">
<rect x="0" y="0" width="300" height="90" style="fill:rgb(0%,0%,0%);fill-opacity:0.987;stroke:none;"/>
  </g>
</mask>
<clipPath id="clip6">
  <rect x="0" y="0" width="300" height="90"/>
</clipPath>
<g id="surface20" clip-path="url(#clip6)">
<path style=" stroke:none;fill-rule:evenodd;fill:rgb(92.941177%,45.490196%,18.82353%);fill-opacity:1;" d="M 58.367188 9.238281 C 59.941406 9.140625 61.15625 9.640625 62 10.746094 C 62.886719 12.453125 62.445312 13.855469 60.675781 14.953125 C 59.210938 15.546875 57.8125 15.449219 56.484375 14.664062 C 55.066406 13.464844 54.824219 12.109375 55.757812 10.601562 C 56.421875 9.863281 57.289062 9.410156 58.367188 9.238281 Z M 58.367188 9.238281 "/>
</g>
<mask id="mask4">
  <g filter="url(#alpha)">
<rect x="0" y="0" width="300" height="90" style="fill:rgb(0%,0%,0%);fill-opacity:0.982;stroke:none;"/>
  </g>
</mask>
<clipPath id="clip7">
  <rect x="0" y="0" width="300" height="90"/>
</clipPath>
<g id="surface23" clip-path="url(#clip7)">
<path style=" stroke:none;fill-rule:evenodd;fill:rgb(92.941177%,45.490196%,18.82353%);fill-opacity:1;" d="M 102.75 11.320312 C 104.746094 11.417969 105.671875 12.304688 105.53125 13.980469 C 105.039062 15.296875 103.96875 15.859375 102.324219 15.671875 C 100.886719 15.25 100.246094 14.402344 100.398438 13.117188 C 100.742188 12.101562 101.523438 11.5 102.75 11.320312 Z M 102.75 11.320312 "/>
</g>
<mask id="mask5">
  <g filter="url(#alpha)">
<rect x="0" y="0" width="300" height="90" style="fill:rgb(0%,0%,0%);fill-opacity:0.985;stroke:none;"/>
  </g>
</mask>
<clipPath id="clip8">
  <rect x="0" y="0" width="300" height="90"/>
</clipPath>
<g id="surface26" clip-path="url(#clip8)">
<path style=" stroke:none;fill-rule:evenodd;fill:rgb(92.941177%,45.490196%,18.82353%);fill-opacity:1;" d="M 76.238281 12.113281 C 77.992188 11.933594 79.175781 12.53125 79.789062 13.910156 C 80.125 15.8125 79.15625 16.890625 76.882812 17.144531 C 74.777344 16.910156 73.808594 15.902344 73.972656 14.125 C 74.253906 13.0625 75.007812 12.394531 76.238281 12.113281 Z M 76.238281 12.113281 "/>
</g>
<mask id="mask6">
  <g filter="url(#alpha)">
<rect x="0" y="0" width="300" height="90" style="fill:rgb(0%,0%,0%);fill-opacity:0.983;stroke:none;"/>
  </g>
</mask>
<clipPath id="clip9">
  <rect x="0" y="0" width="300" height="90"/>
</clipPath>
<g id="surface29" clip-path="url(#clip9)">
<path style=" stroke:none;fill-rule:evenodd;fill:rgb(92.941177%,45.490196%,18.82353%);fill-opacity:1;" d="M 86.160156 12.472656 C 87.917969 12.523438 88.984375 13.265625 89.367188 14.699219 C 89.488281 16.160156 88.703125 17.082031 87.015625 17.46875 C 85.148438 17.667969 83.964844 17.011719 83.464844 15.492188 C 83.308594 13.808594 84.207031 12.804688 86.160156 12.472656 Z M 86.160156 12.472656 "/>
</g>
<mask id="mask7">
  <g filter="url(#alpha)">
<rect x="0" y="0" width="300" height="90" style="fill:rgb(0%,0%,0%);fill-opacity:0.986;stroke:none;"/>
  </g>
</mask>
<clipPath id="clip10">
  <rect x="0" y="0" width="300" height="90"/>
</clipPath>
<g id="surface32" clip-path="url(#clip10)">
<path style=" stroke:none;fill-rule:evenodd;fill:rgb(92.941177%,45.490196%,18.82353%);fill-opacity:1;" d="M 67.089844 13.765625 C 69.542969 13.730469 70.699219 14.738281 70.554688 16.785156 C 70.070312 18.269531 68.914062 18.929688 67.089844 18.761719 C 65.238281 18.300781 64.457031 17.257812 64.738281 15.636719 C 65.097656 14.625 65.878906 14.003906 67.089844 13.765625 Z M 67.089844 13.765625 "/>
</g>
<mask id="mask8">
  <g filter="url(#alpha)">
<rect x="0" y="0" width="300" height="90" style="fill:rgb(0%,0%,0%);fill-opacity:0.988;stroke:none;"/>
  </g>
</mask>
<clipPath id="clip11">
  <rect x="0" y="0" width="300" height="90"/>
</clipPath>
<g id="surface35" clip-path="url(#clip11)">
<path style=" stroke:none;fill-rule:evenodd;fill:rgb(92.941177%,45.490196%,18.82353%);fill-opacity:1;" d="M 48.789062 14.917969 C 51.777344 14.851562 53.1875 16.074219 53.023438 18.582031 C 52.351562 20.34375 50.914062 21.125 48.703125 20.917969 C 46.535156 20.359375 45.609375 19.125 45.921875 17.214844 C 46.335938 15.96875 47.292969 15.203125 48.789062 14.917969 Z M 48.789062 14.917969 "/>
</g>
<mask id="mask9">
  <g filter="url(#alpha)">
<rect x="0" y="0" width="300" height="90" style="fill:rgb(0%,0%,0%);fill-opacity:0.985;stroke:none;"/>
  </g>
</mask>
<clipPath id="clip12">
  <rect x="0" y="0" width="300" height="90"/>
</clipPath>
<g id="surface38" clip-path="url(#clip12)">
<path style=" stroke:none;fill-rule:evenodd;fill:rgb(92.941177%,45.490196%,18.82353%);fill-opacity:1;" d="M 94.796875 14.988281 C 96.511719 14.816406 97.695312 15.390625 98.347656 16.714844 C 98.679688 18.152344 98.066406 19.195312 96.507812 19.839844 C 94.503906 20.25 93.175781 19.636719 92.53125 18.007812 C 92.300781 16.464844 93.054688 15.460938 94.796875 14.988281 Z M 94.796875 14.988281 "/>
</g>
<mask id="mask10">
  <g filter="url(#alpha)">
<rect x="0" y="0" width="300" height="90" style="fill:rgb(0%,0%,0%);fill-opacity:0.983;stroke:none;"/>
  </g>
</mask>
<clipPath id="clip13">
  <rect x="0" y="0" width="300" height="90"/>
</clipPath>
<g id="surface41" clip-path="url(#clip13)">
<path style=" stroke:none;fill-rule:evenodd;fill:rgb(92.941177%,45.490196%,18.82353%);fill-opacity:1;" d="M 82.570312 17.359375 C 84.464844 17.527344 85.308594 18.414062 85.089844 20.019531 C 84.839844 20.828125 84.230469 21.320312 83.253906 21.492188 C 81.714844 21.703125 80.703125 21.1875 80.214844 19.949219 C 80.058594 18.464844 80.839844 17.605469 82.570312 17.359375 Z M 82.570312 17.359375 "/>
</g>
<mask id="mask11">
  <g filter="url(#alpha)">
<rect x="0" y="0" width="300" height="90" style="fill:rgb(0%,0%,0%);fill-opacity:0.986;stroke:none;"/>
  </g>
</mask>
<clipPath id="clip14">
  <rect x="0" y="0" width="300" height="90"/>
</clipPath>
<g id="surface44" clip-path="url(#clip14)">
<path style=" stroke:none;fill-rule:evenodd;fill:rgb(92.941177%,45.490196%,18.82353%);fill-opacity:1;" d="M 58.453125 17.433594 C 60.285156 17.226562 61.496094 17.847656 62.085938 19.300781 C 62.324219 20.351562 61.96875 21.226562 61.019531 21.925781 C 59.839844 22.519531 58.640625 22.542969 57.425781 21.996094 C 56.171875 21.0625 55.871094 19.949219 56.527344 18.652344 C 57 18.042969 57.640625 17.636719 58.453125 17.433594 Z M 58.453125 17.433594 "/>
</g>
<mask id="mask12">
  <g filter="url(#alpha)">
<rect x="0" y="0" width="300" height="90" style="fill:rgb(0%,0%,0%);fill-opacity:0.981;stroke:none;"/>
  </g>
</mask>
<clipPath id="clip15">
  <rect x="0" y="0" width="300" height="90"/>
</clipPath>
<g id="surface47" clip-path="url(#clip15)">
<path style=" stroke:none;fill-rule:evenodd;fill:rgb(92.941177%,45.490196%,18.82353%);fill-opacity:1;" d="M 74.1875 17.71875 C 76.289062 17.628906 77.300781 18.46875 77.222656 20.234375 C 76.714844 21.558594 75.648438 22.074219 74.015625 21.78125 C 72.699219 21.328125 72.144531 20.503906 72.347656 19.300781 C 72.632812 18.496094 73.246094 17.972656 74.1875 17.71875 Z M 74.1875 17.71875 "/>
</g>
<mask id="mask13">
  <g filter="url(#alpha)">
<rect x="0" y="0" width="300" height="90" style="fill:rgb(0%,0%,0%);fill-opacity:0.979;stroke:none;"/>
  </g>
</mask>
<clipPath id="clip16">
  <rect x="0" y="0" width="300" height="90"/>
</clipPath>
<g id="surface50" clip-path="url(#clip16)">
<path style=" stroke:none;fill-rule:evenodd;fill:rgb(92.941177%,45.490196%,18.82353%);fill-opacity:1;" d="M 102.921875 17.933594 C 105 17.921875 105.929688 18.785156 105.703125 20.523438 C 105.191406 21.570312 104.265625 22.011719 102.921875 21.851562 C 101.570312 21.53125 100.957031 20.773438 101.082031 19.589844 C 101.332031 18.746094 101.945312 18.191406 102.921875 17.933594 Z M 102.921875 17.933594 "/>
</g>
<mask id="mask14">
  <g filter="url(#alpha)">
<rect x="0" y="0" width="300" height="90" style="fill:rgb(0%,0%,0%);fill-opacity:0.981;stroke:none;"/>
  </g>
</mask>
<clipPath id="clip17">
  <rect x="0" y="0" width="300" height="90"/>
</clipPath>
<g id="surface53" clip-path="url(#clip17)">
<path style=" stroke:none;fill-rule:evenodd;fill:rgb(92.941177%,45.490196%,18.82353%);fill-opacity:1;" d="M 66.746094 19.734375 C 68.859375 19.699219 69.839844 20.558594 69.699219 22.320312 C 69.167969 23.542969 68.125 24.058594 66.578125 23.867188 C 65.140625 23.402344 64.554688 22.527344 64.824219 21.242188 C 65.15625 20.449219 65.796875 19.945312 66.746094 19.734375 Z M 66.746094 19.734375 "/>
</g>
<clipPath id="clip18">
  <rect x="0" y="0" width="300" height="90"/>
</clipPath>
<g id="surface56" clip-path="url(#clip18)">
<path style=" stroke:none;fill-rule:evenodd;fill:rgb(17.254902%,58.431375%,52.156866%);fill-opacity:1;" d="M 240.179688 23.757812 C 239.972656 24.03125 239.789062 24.320312 239.625 24.621094 C 238.332031 28.609375 237.035156 32.585938 235.734375 36.554688 C 231.195312 34.617188 226.4375 34.078125 221.449219 34.9375 C 220.214844 35.1875 219.171875 35.699219 218.328125 36.480469 C 217.472656 37.566406 217.628906 38.539062 218.800781 39.394531 C 219.449219 39.796875 220.164062 40.109375 220.9375 40.328125 C 222.007812 40.632812 223.089844 40.898438 224.1875 41.117188 C 227.105469 41.625 230.015625 42.175781 232.910156 42.773438 C 235.988281 43.449219 238.839844 44.527344 241.460938 46.007812 C 245.605469 48.734375 247.386719 52.316406 246.808594 56.753906 C 246.125 63.023438 242.632812 67.828125 236.332031 71.167969 C 231.183594 73.679688 225.625 75.046875 219.65625 75.261719 C 211.308594 75.785156 203.554688 74.253906 196.394531 70.664062 C 194.746094 69.804688 193.191406 68.832031 191.734375 67.75 C 192.570312 62.503906 193.453125 57.253906 194.382812 52.007812 C 195.691406 53.753906 197.332031 55.253906 199.300781 56.5 C 204.199219 59.589844 209.675781 61.628906 215.722656 62.613281 C 218.316406 62.921875 220.878906 62.800781 223.417969 62.253906 C 224.707031 61.980469 225.804688 61.441406 226.710938 60.636719 C 227.675781 59.46875 227.546875 58.402344 226.324219 57.4375 C 225.011719 56.722656 223.585938 56.222656 222.050781 55.925781 C 219.019531 55.355469 216 54.757812 212.984375 54.128906 C 209.847656 53.449219 206.914062 52.398438 204.175781 50.964844 C 199.734375 48.25 197.78125 44.574219 198.316406 39.933594 C 198.992188 33.789062 202.429688 29.105469 208.625 25.878906 C 213.359375 23.59375 218.460938 22.324219 223.929688 22.070312 C 229.492188 21.691406 234.90625 22.253906 240.179688 23.757812 Z M 240.179688 23.757812 "/>
</g>
<mask id="mask15">
  <g filter="url(#alpha)">
<rect x="0" y="0" width="300" height="90" style="fill:rgb(0%,0%,0%);fill-opacity:0.988;stroke:none;"/>
  </g>
</mask>
<clipPath id="clip19">
  <rect x="0" y="0" width="300" height="90"/>
</clipPath>
<g id="surface59" clip-path="url(#clip19)">
<path style=" stroke:none;fill-rule:evenodd;fill:rgb(92.941177%,45.490196%,18.82353%);fill-opacity:1;" d="M 41.433594 22.390625 C 44.019531 22.242188 45.472656 23.246094 45.796875 25.410156 C 45.46875 27.5625 44.011719 28.558594 41.433594 28.394531 C 40.042969 28.152344 39.117188 27.46875 38.65625 26.347656 C 38.175781 24.320312 39.105469 23 41.433594 22.390625 Z M 41.433594 22.390625 "/>
</g>
<clipPath id="clip20">
  <rect x="0" y="0" width="300" height="90"/>
</clipPath>
<g id="surface62" clip-path="url(#clip20)">
<path style=" stroke:none;fill-rule:evenodd;fill:rgb(24.313726%,16.078432%,43.137255%);fill-opacity:1;" d="M 235.734375 36.554688 C 237.035156 32.585938 238.332031 28.609375 239.625 24.621094 C 239.789062 24.320312 239.972656 24.03125 240.179688 23.757812 C 240.734375 23.128906 241.476562 22.734375 242.402344 22.570312 C 249.53125 22.523438 256.65625 22.523438 263.78125 22.570312 C 265.335938 22.917969 266.320312 23.746094 266.734375 25.050781 C 266.789062 25.507812 266.789062 25.960938 266.734375 26.417969 C 265.347656 30.804688 263.953125 35.191406 262.542969 39.574219 C 262.132812 40.5625 261.320312 41.175781 260.105469 41.40625 C 252.636719 41.453125 245.167969 41.453125 237.699219 41.40625 C 235.84375 40.945312 235.003906 39.90625 235.175781 38.277344 C 235.363281 37.703125 235.546875 37.128906 235.734375 36.554688 Z M 235.734375 36.554688 "/>
</g>
<mask id="mask16">
  <g filter="url(#alpha)">
<rect x="0" y="0" width="300" height="90" style="fill:rgb(0%,0%,0%);fill-opacity:0.983;stroke:none;"/>
  </g>
</mask>
<clipPath id="clip21">
  <rect x="0" y="0" width="300" height="90"/>
</clipPath>
<g id="surface65" clip-path="url(#clip21)">
<path style=" stroke:none;fill-rule:evenodd;fill:rgb(92.941177%,45.490196%,18.82353%);fill-opacity:1;" d="M 51.609375 22.75 C 54.0625 22.714844 55.214844 23.722656 55.074219 25.769531 C 54.71875 26.910156 53.847656 27.570312 52.464844 27.746094 C 50.734375 27.839844 49.636719 27.179688 49.171875 25.769531 C 48.988281 24.1875 49.800781 23.179688 51.609375 22.75 Z M 51.609375 22.75 "/>
</g>
<mask id="mask17">
  <g filter="url(#alpha)">
<rect x="0" y="0" width="300" height="90" style="fill:rgb(0%,0%,0%);fill-opacity:0.981;stroke:none;"/>
  </g>
</mask>
<clipPath id="clip22">
  <rect x="0" y="0" width="300" height="90"/>
</clipPath>
<g id="surface68" clip-path="url(#clip22)">
<path style=" stroke:none;fill-rule:evenodd;fill:rgb(92.941177%,45.490196%,18.82353%);fill-opacity:1;" d="M 59.992188 23.328125 C 61.609375 23.210938 62.621094 23.808594 63.027344 25.125 C 63.011719 26.859375 61.972656 27.640625 59.90625 27.460938 C 58.496094 27.015625 57.914062 26.167969 58.152344 24.90625 C 58.4375 24.105469 59.050781 23.578125 59.992188 23.328125 Z M 59.992188 23.328125 "/>
</g>
<mask id="mask18">
  <g filter="url(#alpha)">
<rect x="0" y="0" width="300" height="90" style="fill:rgb(0%,0%,0%);fill-opacity:0.976;stroke:none;"/>
  </g>
</mask>
<clipPath id="clip23">
  <rect x="0" y="0" width="300" height="90"/>
</clipPath>
<g id="surface71" clip-path="url(#clip23)">
<path style=" stroke:none;fill-rule:evenodd;fill:rgb(92.941177%,45.490196%,18.82353%);fill-opacity:1;" d="M 66.40625 25.050781 C 67.894531 25.007812 68.71875 25.609375 68.886719 26.847656 C 68.730469 27.914062 68.019531 28.488281 66.746094 28.574219 C 65.484375 28.445312 64.796875 27.847656 64.695312 26.777344 C 64.800781 25.871094 65.371094 25.296875 66.40625 25.050781 Z M 66.40625 25.050781 "/>
</g>
<mask id="mask19">
  <g filter="url(#alpha)">
<rect x="0" y="0" width="300" height="90" style="fill:rgb(0%,0%,0%);fill-opacity:0.98;stroke:none;"/>
  </g>
</mask>
<clipPath id="clip24">
  <rect x="0" y="0" width="300" height="90"/>
</clipPath>
<g id="surface74" clip-path="url(#clip24)">
<path style=" stroke:none;fill-rule:evenodd;fill:rgb(92.941177%,45.490196%,18.82353%);fill-opacity:1;" d="M 54.859375 28.214844 C 57.019531 28.292969 57.945312 29.226562 57.640625 31.019531 C 56.96875 32.285156 55.84375 32.703125 54.261719 32.277344 C 52.890625 31.648438 52.464844 30.714844 52.980469 29.472656 C 53.34375 28.769531 53.972656 28.347656 54.859375 28.214844 Z M 54.859375 28.214844 "/>
</g>
<mask id="mask20">
  <g filter="url(#alpha)">
<rect x="0" y="0" width="300" height="90" style="fill:rgb(0%,0%,0%);fill-opacity:0.978;stroke:none;"/>
  </g>
</mask>
<clipPath id="clip25">
  <rect x="0" y="0" width="300" height="90"/>
</clipPath>
<g id="surface77" clip-path="url(#clip25)">
<path style=" stroke:none;fill-rule:evenodd;fill:rgb(92.941177%,45.490196%,18.82353%);fill-opacity:1;" d="M 61.1875 28.503906 C 62.976562 28.492188 63.789062 29.234375 63.625 30.730469 C 63.253906 31.683594 62.472656 32.101562 61.273438 31.988281 C 59.742188 31.578125 59.242188 30.730469 59.777344 29.4375 C 60.117188 28.972656 60.585938 28.660156 61.1875 28.503906 Z M 61.1875 28.503906 "/>
</g>
<mask id="mask21">
  <g filter="url(#alpha)">
<rect x="0" y="0" width="300" height="90" style="fill:rgb(0%,0%,0%);fill-opacity:0.985;stroke:none;"/>
  </g>
</mask>
<clipPath id="clip26">
  <rect x="0" y="0" width="300" height="90"/>
</clipPath>
<g id="surface80" clip-path="url(#clip26)">
<path style=" stroke:none;fill-rule:evenodd;fill:rgb(92.941177%,45.490196%,18.82353%);fill-opacity:1;" d="M 46.566406 29.4375 C 48.960938 29.484375 50.058594 30.515625 49.859375 32.527344 C 49.324219 34.003906 48.140625 34.636719 46.308594 34.433594 C 44.519531 33.933594 43.765625 32.890625 44.042969 31.304688 C 44.472656 30.285156 45.3125 29.660156 46.566406 29.4375 Z M 46.566406 29.4375 "/>
</g>
<mask id="mask22">
  <g filter="url(#alpha)">
<rect x="0" y="0" width="300" height="90" style="fill:rgb(0%,0%,0%);fill-opacity:0.987;stroke:none;"/>
  </g>
</mask>
<clipPath id="clip27">
  <rect x="0" y="0" width="300" height="90"/>
</clipPath>
<g id="surface83" clip-path="url(#clip27)">
<path style=" stroke:none;fill-rule:evenodd;fill:rgb(92.941177%,45.490196%,18.82353%);fill-opacity:1;" d="M 36.988281 31.164062 C 39.234375 31.171875 40.5625 32.105469 40.964844 33.964844 C 41.042969 35.734375 40.0625 36.824219 38.011719 37.238281 C 35.636719 37.40625 34.226562 36.507812 33.78125 34.539062 C 33.710938 32.644531 34.777344 31.519531 36.988281 31.164062 Z M 36.988281 31.164062 "/>
</g>
<mask id="mask23">
  <g filter="url(#alpha)">
<rect x="0" y="0" width="300" height="90" style="fill:rgb(0%,0%,0%);fill-opacity:0.975;stroke:none;"/>
  </g>
</mask>
<clipPath id="clip28">
  <rect x="0" y="0" width="300" height="90"/>
</clipPath>
<g id="surface86" clip-path="url(#clip28)">
<path style=" stroke:none;fill-rule:evenodd;fill:rgb(92.941177%,45.490196%,18.82353%);fill-opacity:1;" d="M 57.253906 32.960938 C 59.15625 32.964844 59.96875 33.753906 59.691406 35.332031 C 59.304688 36.035156 58.648438 36.417969 57.726562 36.480469 C 56.078125 36.273438 55.421875 35.484375 55.757812 34.109375 C 56.0625 33.53125 56.558594 33.148438 57.253906 32.960938 Z M 57.253906 32.960938 "/>
</g>
<mask id="mask24">
  <g filter="url(#alpha)">
<rect x="0" y="0" width="300" height="90" style="fill:rgb(0%,0%,0%);fill-opacity:0.981;stroke:none;"/>
  </g>
</mask>
<clipPath id="clip29">
  <rect x="0" y="0" width="300" height="90"/>
</clipPath>
<g id="surface89" clip-path="url(#clip29)">
<path style=" stroke:none;fill-rule:evenodd;fill:rgb(92.941177%,45.490196%,18.82353%);fill-opacity:1;" d="M 51.183594 34.179688 C 52.613281 34.058594 53.566406 34.558594 54.046875 35.691406 C 54.261719 37.425781 53.335938 38.300781 51.269531 38.316406 C 49.667969 38 48.96875 37.148438 49.171875 35.761719 C 49.476562 34.898438 50.144531 34.371094 51.183594 34.179688 Z M 51.183594 34.179688 "/>
</g>
<mask id="mask25">
  <g filter="url(#alpha)">
<rect x="0" y="0" width="300" height="90" style="fill:rgb(0%,0%,0%);fill-opacity:0.986;stroke:none;"/>
  </g>
</mask>
<clipPath id="clip30">
  <rect x="0" y="0" width="300" height="90"/>
</clipPath>
<g id="surface92" clip-path="url(#clip30)">
<path style=" stroke:none;fill-rule:evenodd;fill:rgb(92.941177%,45.490196%,18.82353%);fill-opacity:1;" d="M 43.230469 37.058594 C 45.855469 36.929688 47.09375 37.957031 46.949219 40.148438 C 46.507812 41.371094 45.523438 42.015625 44 42.089844 C 41.839844 41.820312 40.886719 40.765625 41.132812 38.925781 C 41.414062 37.960938 42.113281 37.335938 43.230469 37.058594 Z M 43.230469 37.058594 "/>
</g>
<mask id="mask26">
  <g filter="url(#alpha)">
<rect x="0" y="0" width="300" height="90" style="fill:rgb(0%,0%,0%);fill-opacity:0.977;stroke:none;"/>
  </g>
</mask>
<clipPath id="clip31">
  <rect x="0" y="0" width="300" height="90"/>
</clipPath>
<g id="surface95" clip-path="url(#clip31)">
<path style=" stroke:none;fill-rule:evenodd;fill:rgb(92.941177%,45.490196%,18.82353%);fill-opacity:1;" d="M 54.859375 38.136719 C 56.332031 38.042969 57.1875 38.605469 57.425781 39.824219 C 57.09375 41.367188 56.039062 41.894531 54.261719 41.40625 C 53.230469 40.746094 52.988281 39.917969 53.535156 38.925781 C 53.882812 38.546875 54.324219 38.28125 54.859375 38.136719 Z M 54.859375 38.136719 "/>
</g>
<mask id="mask27">
  <g filter="url(#alpha)">
<rect x="0" y="0" width="300" height="90" style="fill:rgb(0%,0%,0%);fill-opacity:0.983;stroke:none;"/>
  </g>
</mask>
<clipPath id="clip32">
  <rect x="0" y="0" width="300" height="90"/>
</clipPath>
<g id="surface98" clip-path="url(#clip32)">
<path style=" stroke:none;fill-rule:evenodd;fill:rgb(92.941177%,45.490196%,18.82353%);fill-opacity:1;" d="M 49.644531 40.652344 C 51.707031 40.742188 52.605469 41.65625 52.335938 43.382812 C 51.957031 44.347656 51.160156 44.851562 49.941406 44.890625 C 48.382812 44.765625 47.570312 44.046875 47.503906 42.734375 C 47.578125 41.574219 48.289062 40.878906 49.644531 40.652344 Z M 49.644531 40.652344 "/>
</g>
<mask id="mask28">
  <g filter="url(#alpha)">
<rect x="0" y="0" width="300" height="90" style="fill:rgb(0%,0%,0%);fill-opacity:0.987;stroke:none;"/>
  </g>
</mask>
<clipPath id="clip33">
  <rect x="0" y="0" width="300" height="90"/>
</clipPath>
<g id="surface101" clip-path="url(#clip33)">
<path style=" stroke:none;fill-rule:evenodd;fill:rgb(92.941177%,45.490196%,18.82353%);fill-opacity:1;" d="M 35.019531 40.722656 C 37.3125 40.695312 38.667969 41.632812 39.082031 43.527344 C 39.1875 44.726562 38.660156 45.671875 37.5 46.367188 C 35.417969 47.230469 33.695312 46.882812 32.324219 45.324219 C 31.421875 43.726562 31.777344 42.375 33.394531 41.261719 C 33.917969 41.015625 34.457031 40.835938 35.019531 40.722656 Z M 35.019531 40.722656 "/>
</g>
<mask id="mask29">
  <g filter="url(#alpha)">
<rect x="0" y="0" width="300" height="90" style="fill:rgb(0%,0%,0%);fill-opacity:0.975;stroke:none;"/>
  </g>
</mask>
<clipPath id="clip34">
  <rect x="0" y="0" width="300" height="90"/>
</clipPath>
<g id="surface104" clip-path="url(#clip34)">
<path style=" stroke:none;fill-rule:evenodd;fill:rgb(92.941177%,45.490196%,18.82353%);fill-opacity:1;" d="M 54.089844 43.671875 C 56.046875 43.625 56.859375 44.417969 56.527344 46.042969 C 55.847656 47.039062 54.863281 47.339844 53.578125 46.941406 C 52.546875 46.367188 52.246094 45.585938 52.679688 44.605469 C 53.019531 44.140625 53.488281 43.828125 54.089844 43.671875 Z M 54.089844 43.671875 "/>
</g>
<mask id="mask30">
  <g filter="url(#alpha)">
<rect x="0" y="0" width="300" height="90" style="fill:rgb(0%,0%,0%);fill-opacity:0.985;stroke:none;"/>
  </g>
</mask>
<clipPath id="clip35">
  <rect x="0" y="0" width="300" height="90"/>
</clipPath>
<g id="surface107" clip-path="url(#clip35)">
<path style=" stroke:none;fill-rule:evenodd;fill:rgb(92.941177%,45.490196%,18.82353%);fill-opacity:1;" d="M 42.800781 45.035156 C 45.035156 44.851562 46.261719 45.691406 46.480469 47.550781 C 46.316406 49.113281 45.304688 49.929688 43.445312 49.996094 C 42.078125 49.976562 41.167969 49.425781 40.707031 48.34375 C 40.265625 46.714844 40.964844 45.609375 42.800781 45.035156 Z M 42.800781 45.035156 "/>
</g>
<mask id="mask31">
  <g filter="url(#alpha)">
<rect x="0" y="0" width="300" height="90" style="fill:rgb(0%,0%,0%);fill-opacity:0.982;stroke:none;"/>
  </g>
</mask>
<clipPath id="clip36">
  <rect x="0" y="0" width="300" height="90"/>
</clipPath>
<g id="surface110" clip-path="url(#clip36)">
<path style=" stroke:none;fill-rule:evenodd;fill:rgb(92.941177%,45.490196%,18.82353%);fill-opacity:1;" d="M 51.097656 47.910156 C 52.605469 47.761719 53.589844 48.289062 54.046875 49.492188 C 54.179688 51.296875 53.167969 52.148438 51.011719 52.042969 C 49.582031 51.621094 48.972656 50.773438 49.171875 49.492188 C 49.464844 48.660156 50.105469 48.132812 51.097656 47.910156 Z M 51.097656 47.910156 "/>
</g>
<mask id="mask32">
  <g filter="url(#alpha)">
<rect x="0" y="0" width="300" height="90" style="fill:rgb(0%,0%,0%);fill-opacity:0.986;stroke:none;"/>
  </g>
</mask>
<clipPath id="clip37">
  <rect x="0" y="0" width="300" height="90"/>
</clipPath>
<g id="surface113" clip-path="url(#clip37)">
<path style=" stroke:none;fill-rule:evenodd;fill:rgb(92.941177%,45.490196%,18.82353%);fill-opacity:1;" d="M 36.21875 50.355469 C 38.640625 50.414062 39.980469 51.457031 40.238281 53.484375 C 40.082031 55.113281 39.054688 56.09375 37.15625 56.429688 C 34.90625 56.570312 33.523438 55.71875 33.011719 53.878906 C 32.828125 52.632812 33.328125 51.640625 34.507812 50.894531 C 35.054688 50.632812 35.621094 50.453125 36.21875 50.355469 Z M 36.21875 50.355469 "/>
</g>
<mask id="mask33">
  <g filter="url(#alpha)">
<rect x="0" y="0" width="300" height="90" style="fill:rgb(0%,0%,0%);fill-opacity:0.985;stroke:none;"/>
  </g>
</mask>
<clipPath id="clip38">
  <rect x="0" y="0" width="300" height="90"/>
</clipPath>
<g id="surface116" clip-path="url(#clip38)">
<path style=" stroke:none;fill-rule:evenodd;fill:rgb(92.941177%,45.490196%,18.82353%);fill-opacity:1;" d="M 45.28125 52.800781 C 47.128906 52.804688 48.199219 53.574219 48.488281 55.101562 C 48.527344 56.507812 47.746094 57.40625 46.136719 57.796875 C 43.601562 57.894531 42.421875 56.875 42.589844 54.742188 C 43.003906 53.613281 43.902344 52.96875 45.28125 52.800781 Z M 45.28125 52.800781 "/>
</g>
<mask id="mask34">
  <g filter="url(#alpha)">
<rect x="0" y="0" width="300" height="90" style="fill:rgb(0%,0%,0%);fill-opacity:0.981;stroke:none;"/>
  </g>
</mask>
<clipPath id="clip39">
  <rect x="0" y="0" width="300" height="90"/>
</clipPath>
<g id="surface119" clip-path="url(#clip39)">
<path style=" stroke:none;fill-rule:evenodd;fill:rgb(92.941177%,45.490196%,18.82353%);fill-opacity:1;" d="M 52.894531 54.597656 C 54.484375 54.53125 55.4375 55.152344 55.757812 56.464844 C 55.703125 58.160156 54.664062 58.917969 52.636719 58.730469 C 51.488281 58.398438 50.859375 57.714844 50.753906 56.679688 C 50.894531 55.558594 51.605469 54.863281 52.894531 54.597656 Z M 52.894531 54.597656 "/>
</g>
<mask id="mask35">
  <g filter="url(#alpha)">
<rect x="0" y="0" width="300" height="90" style="fill:rgb(0%,0%,0%);fill-opacity:0.986;stroke:none;"/>
  </g>
</mask>
<clipPath id="clip40">
  <rect x="0" y="0" width="300" height="90"/>
</clipPath>
<g id="surface122" clip-path="url(#clip40)">
<path style=" stroke:none;fill-rule:evenodd;fill:rgb(92.941177%,45.490196%,18.82353%);fill-opacity:1;" d="M 40.152344 59.414062 C 42.371094 59.375 43.722656 60.257812 44.214844 62.074219 C 44.386719 63.878906 43.429688 65.019531 41.347656 65.488281 C 38.960938 65.664062 37.523438 64.765625 37.03125 62.792969 C 37.007812 60.953125 38.050781 59.828125 40.152344 59.414062 Z M 40.152344 59.414062 "/>
</g>
<mask id="mask36">
  <g filter="url(#alpha)">
<rect x="0" y="0" width="300" height="90" style="fill:rgb(0%,0%,0%);fill-opacity:0.983;stroke:none;"/>
  </g>
</mask>
<clipPath id="clip41">
  <rect x="0" y="0" width="300" height="90"/>
</clipPath>
<g id="surface125" clip-path="url(#clip41)">
<path style=" stroke:none;fill-rule:evenodd;fill:rgb(92.941177%,45.490196%,18.82353%);fill-opacity:1;" d="M 49.558594 59.917969 C 51.246094 59.886719 52.316406 60.554688 52.765625 61.929688 C 52.894531 64.023438 51.710938 65.019531 49.214844 64.914062 C 47.355469 64.40625 46.597656 63.339844 46.949219 61.714844 C 47.421875 60.703125 48.292969 60.105469 49.558594 59.917969 Z M 49.558594 59.917969 "/>
</g>
<mask id="mask37">
  <g filter="url(#alpha)">
<rect x="0" y="0" width="300" height="90" style="fill:rgb(0%,0%,0%);fill-opacity:0.979;stroke:none;"/>
  </g>
</mask>
<clipPath id="clip42">
  <rect x="0" y="0" width="300" height="90"/>
</clipPath>
<g id="surface128" clip-path="url(#clip42)">
<path style=" stroke:none;fill-rule:evenodd;fill:rgb(92.941177%,45.490196%,18.82353%);fill-opacity:1;" d="M 56.144531 62.933594 C 58.136719 62.898438 59.0625 63.710938 58.921875 65.378906 C 58.476562 66.496094 57.550781 66.988281 56.144531 66.851562 C 54.722656 66.492188 54.109375 65.691406 54.304688 64.445312 C 54.617188 63.675781 55.226562 63.171875 56.144531 62.933594 Z M 56.144531 62.933594 "/>
</g>
<mask id="mask38">
  <g filter="url(#alpha)">
<rect x="0" y="0" width="300" height="90" style="fill:rgb(0%,0%,0%);fill-opacity:0.987;stroke:none;"/>
  </g>
</mask>
<clipPath id="clip43">
  <rect x="0" y="0" width="300" height="90"/>
</clipPath>
<g id="surface131" clip-path="url(#clip43)">
<path style=" stroke:none;fill-rule:evenodd;fill:rgb(92.941177%,45.490196%,18.82353%);fill-opacity:1;" d="M 48.53125 66.816406 C 50.738281 66.746094 52.121094 67.605469 52.679688 69.40625 C 52.882812 71.28125 51.898438 72.445312 49.730469 72.890625 C 48.085938 73.066406 46.816406 72.578125 45.921875 71.417969 C 45.078125 69.835938 45.4375 68.480469 46.992188 67.355469 C 47.484375 67.113281 47.996094 66.933594 48.53125 66.816406 Z M 48.53125 66.816406 "/>
</g>
<mask id="mask39">
  <g filter="url(#alpha)">
<rect x="0" y="0" width="300" height="90" style="fill:rgb(0%,0%,0%);fill-opacity:0.978;stroke:none;"/>
  </g>
</mask>
<clipPath id="clip44">
  <rect x="0" y="0" width="300" height="90"/>
</clipPath>
<g id="surface134" clip-path="url(#clip44)">
<path style=" stroke:none;fill-rule:evenodd;fill:rgb(92.54902%,45.490196%,18.82353%);fill-opacity:1;" d="M 58.878906 69.261719 C 60.421875 69.25 61.375 69.875 61.746094 71.128906 C 61.886719 72.386719 61.246094 73.214844 59.820312 73.609375 C 58.175781 73.808594 57.109375 73.246094 56.613281 71.921875 C 56.464844 70.476562 57.222656 69.589844 58.878906 69.261719 Z M 58.878906 69.261719 "/>
</g>
<mask id="mask40">
  <g filter="url(#alpha)">
<rect x="0" y="0" width="300" height="90" style="fill:rgb(0%,0%,0%);fill-opacity:0.964;stroke:none;"/>
  </g>
</mask>
<clipPath id="clip45">
  <rect x="0" y="0" width="300" height="90"/>
</clipPath>
<g id="surface137" clip-path="url(#clip45)">
<path style=" stroke:none;fill-rule:evenodd;fill:rgb(99.607843%,100%,99.607843%);fill-opacity:1;" d="M 121.992188 78.605469 C 123.855469 78.355469 125.410156 78.8125 126.652344 79.972656 C 126.769531 80.105469 126.871094 80.25 126.953125 80.402344 C 126.234375 80.800781 125.496094 81.160156 124.730469 81.480469 C 123.707031 80.503906 122.511719 80.324219 121.136719 80.941406 C 119.972656 81.621094 119.53125 82.542969 119.8125 83.710938 C 120.300781 84.675781 121.171875 85.074219 122.421875 84.894531 C 123.164062 84.765625 123.789062 84.464844 124.300781 83.996094 C 124.941406 84.355469 125.566406 84.726562 126.183594 85.113281 C 124.386719 86.8125 122.195312 87.316406 119.597656 86.621094 C 118 85.972656 117.171875 84.894531 117.117188 83.386719 C 117.386719 80.800781 119.011719 79.207031 121.992188 78.605469 Z M 121.992188 78.605469 "/>
</g>
<mask id="mask41">
  <g filter="url(#alpha)">
<rect x="0" y="0" width="300" height="90" style="fill:rgb(0%,0%,0%);fill-opacity:0.963;stroke:none;"/>
  </g>
</mask>
<clipPath id="clip46">
  <rect x="0" y="0" width="300" height="90"/>
</clipPath>
<g id="surface140" clip-path="url(#clip46)">
<path style=" stroke:none;fill-rule:evenodd;fill:rgb(99.607843%,100%,99.607843%);fill-opacity:1;" d="M 171.25 78.605469 C 172.269531 78.546875 173.265625 78.632812 174.246094 78.859375 C 174.6875 79.007812 175.085938 79.210938 175.441406 79.46875 C 175.535156 79.554688 175.550781 79.652344 175.484375 79.757812 C 175.054688 80.222656 174.613281 80.679688 174.160156 81.121094 C 173.210938 80.476562 172.15625 80.296875 170.996094 80.582031 C 170.410156 80.96875 170.46875 81.28125 171.164062 81.515625 C 172.230469 81.6875 173.226562 82 174.160156 82.453125 C 175.308594 83.3125 175.492188 84.304688 174.714844 85.433594 C 174.03125 86.183594 173.132812 86.652344 172.019531 86.835938 C 170.070312 87.132812 168.359375 86.738281 166.890625 85.652344 C 167.371094 85.113281 167.871094 84.585938 168.386719 84.070312 C 169.304688 84.820312 170.402344 85.144531 171.679688 85.039062 C 172.144531 84.976562 172.460938 84.761719 172.621094 84.394531 C 172.539062 84.253906 172.425781 84.132812 172.277344 84.035156 C 171.535156 83.84375 170.796875 83.652344 170.054688 83.457031 C 168.007812 82.734375 167.511719 81.550781 168.558594 79.898438 C 169.277344 79.195312 170.175781 78.765625 171.25 78.605469 Z M 171.25 78.605469 "/>
</g>
<mask id="mask42">
  <g filter="url(#alpha)">
<rect x="0" y="0" width="300" height="90" style="fill:rgb(0%,0%,0%);fill-opacity:0.968;stroke:none;"/>
  </g>
</mask>
<clipPath id="clip47">
  <rect x="0" y="0" width="300" height="90"/>
</clipPath>
<g id="surface143" clip-path="url(#clip47)">
<path style=" stroke:none;fill-rule:evenodd;fill:rgb(99.607843%,100%,99.607843%);fill-opacity:1;" d="M 180.742188 78.605469 C 182.179688 78.429688 183.492188 78.679688 184.679688 79.359375 C 185.949219 80.339844 186.417969 81.550781 186.089844 82.992188 C 185.402344 85.222656 183.707031 86.527344 181 86.910156 C 179.324219 87.101562 177.914062 86.683594 176.765625 85.652344 C 175.792969 84.414062 175.621094 83.09375 176.253906 81.699219 C 177.105469 79.992188 178.601562 78.964844 180.742188 78.605469 Z M 181.257812 80.546875 C 183.089844 80.703125 183.84375 81.539062 183.523438 83.0625 C 182.945312 84.390625 181.816406 85 180.144531 84.894531 C 178.863281 84.5625 178.308594 83.832031 178.476562 82.703125 C 178.851562 81.46875 179.777344 80.75 181.257812 80.546875 Z M 181.257812 80.546875 "/>
</g>
<mask id="mask43">
  <g filter="url(#alpha)">
<rect x="0" y="0" width="300" height="90" style="fill:rgb(0%,0%,0%);fill-opacity:0.968;stroke:none;"/>
  </g>
</mask>
<clipPath id="clip48">
  <rect x="0" y="0" width="300" height="90"/>
</clipPath>
<g id="surface146" clip-path="url(#clip48)">
<path style=" stroke:none;fill-rule:evenodd;fill:rgb(99.607843%,100%,99.607843%);fill-opacity:1;" d="M 220.082031 78.605469 C 221.941406 78.355469 223.496094 78.8125 224.742188 79.972656 C 225.8125 81.496094 225.8125 83.03125 224.742188 84.574219 C 222.796875 86.84375 220.277344 87.453125 217.175781 86.40625 C 215.585938 85.46875 214.972656 84.1875 215.335938 82.558594 C 215.945312 80.40625 217.527344 79.089844 220.082031 78.605469 Z M 220.597656 80.546875 C 222.285156 80.660156 223.070312 81.429688 222.949219 82.847656 C 222.46875 84.28125 221.339844 84.964844 219.570312 84.894531 C 218.328125 84.617188 217.746094 83.9375 217.816406 82.847656 C 218.113281 81.53125 219.039062 80.765625 220.597656 80.546875 Z M 220.597656 80.546875 "/>
</g>
<mask id="mask44">
  <g filter="url(#alpha)">
<rect x="0" y="0" width="300" height="90" style="fill:rgb(0%,0%,0%);fill-opacity:0.963;stroke:none;"/>
  </g>
</mask>
<clipPath id="clip49">
  <rect x="0" y="0" width="300" height="90"/>
</clipPath>
<g id="surface149" clip-path="url(#clip49)">
<path style=" stroke:none;fill-rule:evenodd;fill:rgb(99.607843%,100%,99.607843%);fill-opacity:1;" d="M 239.921875 78.605469 C 241.289062 78.457031 242.574219 78.660156 243.769531 79.21875 C 243.898438 79.324219 244.027344 79.433594 244.15625 79.539062 C 244.183594 79.640625 244.15625 79.738281 244.070312 79.828125 C 243.6875 80.246094 243.300781 80.667969 242.917969 81.085938 C 242.832031 81.132812 242.746094 81.132812 242.660156 81.085938 C 241.769531 80.460938 240.773438 80.292969 239.667969 80.582031 C 239.082031 80.957031 239.136719 81.269531 239.835938 81.515625 C 240.902344 81.6875 241.898438 82 242.832031 82.453125 C 244.128906 83.5 244.199219 84.617188 243.042969 85.792969 C 241.863281 86.683594 240.484375 87.054688 238.898438 86.910156 C 237.601562 86.8125 236.488281 86.394531 235.5625 85.652344 C 236.042969 85.113281 236.542969 84.585938 237.058594 84.070312 C 237.976562 84.820312 239.070312 85.144531 240.351562 85.039062 C 240.792969 84.972656 241.109375 84.769531 241.292969 84.429688 C 241.238281 84.300781 241.152344 84.195312 241.035156 84.105469 C 240.28125 83.855469 239.511719 83.640625 238.726562 83.457031 C 236.804688 82.828125 236.25 81.714844 237.058594 80.117188 C 237.761719 79.277344 238.714844 78.773438 239.921875 78.605469 Z M 239.921875 78.605469 "/>
</g>
<mask id="mask45">
  <g filter="url(#alpha)">
<rect x="0" y="0" width="300" height="90" style="fill:rgb(0%,0%,0%);fill-opacity:0.971;stroke:none;"/>
  </g>
</mask>
<clipPath id="clip50">
  <rect x="0" y="0" width="300" height="90"/>
</clipPath>
<g id="surface152" clip-path="url(#clip50)">
<path style=" stroke:none;fill-rule:evenodd;fill:rgb(99.607843%,100%,99.607843%);fill-opacity:1;" d="M 63.753906 78.75 C 65.351562 78.738281 66.945312 78.75 68.542969 78.785156 C 71.078125 79.339844 72.175781 80.71875 71.835938 82.917969 C 71.207031 85.109375 69.566406 86.390625 66.917969 86.765625 C 65.4375 86.800781 63.953125 86.8125 62.472656 86.800781 C 62.882812 84.117188 63.3125 81.433594 63.753906 78.75 Z M 65.890625 80.691406 C 66.519531 80.679688 67.148438 80.691406 67.773438 80.726562 C 68.769531 80.976562 69.3125 81.539062 69.398438 82.417969 C 68.957031 84.363281 67.5625 85.152344 65.207031 84.789062 C 65.472656 83.425781 65.699219 82.0625 65.890625 80.691406 Z M 65.890625 80.691406 "/>
</g>
<mask id="mask46">
  <g filter="url(#alpha)">
<rect x="0" y="0" width="300" height="90" style="fill:rgb(0%,0%,0%);fill-opacity:0.965;stroke:none;"/>
  </g>
</mask>
<clipPath id="clip51">
  <rect x="0" y="0" width="300" height="90"/>
</clipPath>
<g id="surface155" clip-path="url(#clip51)">
<path style=" stroke:none;fill-rule:evenodd;fill:rgb(99.607843%,100%,99.607843%);fill-opacity:1;" d="M 71.792969 78.820312 C 72.71875 78.738281 73.660156 78.726562 74.613281 78.785156 C 75.136719 79.800781 75.648438 80.820312 76.15625 81.839844 C 76.980469 80.835938 77.808594 79.828125 78.632812 78.820312 C 79.574219 78.738281 80.515625 78.726562 81.457031 78.785156 C 80.019531 80.542969 78.550781 82.28125 77.050781 83.996094 C 76.851562 84.902344 76.679688 85.8125 76.539062 86.730469 C 75.734375 86.800781 74.921875 86.824219 74.101562 86.800781 C 74.1875 85.90625 74.332031 85.019531 74.53125 84.140625 C 73.660156 82.34375 72.746094 80.570312 71.792969 78.820312 Z M 71.792969 78.820312 "/>
</g>
<mask id="mask47">
  <g filter="url(#alpha)">
<rect x="0" y="0" width="300" height="90" style="fill:rgb(0%,0%,0%);fill-opacity:0.971;stroke:none;"/>
  </g>
</mask>
<clipPath id="clip52">
  <rect x="0" y="0" width="300" height="90"/>
</clipPath>
<g id="surface158" clip-path="url(#clip52)">
<path style=" stroke:none;fill-rule:evenodd;fill:rgb(99.607843%,100%,99.607843%);fill-opacity:1;" d="M 82.140625 78.75 C 82.96875 78.726562 83.796875 78.75 84.621094 78.820312 C 85.519531 80.234375 86.417969 81.648438 87.316406 83.0625 C 87.59375 81.628906 87.835938 80.191406 88.042969 78.75 C 88.867188 78.75 89.695312 78.75 90.523438 78.75 C 90.082031 81.410156 89.640625 84.070312 89.195312 86.730469 C 88.359375 86.824219 87.519531 86.824219 86.671875 86.730469 C 85.796875 85.28125 84.898438 83.84375 83.980469 82.417969 C 83.710938 83.875 83.464844 85.335938 83.253906 86.800781 C 82.425781 86.800781 81.597656 86.800781 80.773438 86.800781 C 81.207031 84.113281 81.660156 81.429688 82.140625 78.75 Z M 82.140625 78.75 "/>
</g>
<mask id="mask48">
  <g filter="url(#alpha)">
<rect x="0" y="0" width="300" height="90" style="fill:rgb(0%,0%,0%);fill-opacity:0.971;stroke:none;"/>
  </g>
</mask>
<clipPath id="clip53">
  <rect x="0" y="0" width="300" height="90"/>
</clipPath>
<g id="surface161" clip-path="url(#clip53)">
<path style=" stroke:none;fill-rule:evenodd;fill:rgb(99.607843%,100%,99.607843%);fill-opacity:1;" d="M 94.796875 78.75 C 95.796875 78.75 96.792969 78.75 97.789062 78.75 C 98.46875 81.414062 99.183594 84.074219 99.929688 86.730469 C 99.019531 86.800781 98.105469 86.824219 97.191406 86.800781 C 97.140625 86.386719 97.054688 85.980469 96.9375 85.578125 C 95.738281 85.484375 94.542969 85.484375 93.34375 85.578125 C 93.101562 85.972656 92.875 86.367188 92.660156 86.765625 C 91.773438 86.824219 90.890625 86.8125 90.007812 86.730469 C 91.628906 84.078125 93.226562 81.417969 94.796875 78.75 Z M 95.824219 81.121094 C 96.074219 81.9375 96.300781 82.765625 96.507812 83.601562 C 95.824219 83.652344 95.140625 83.652344 94.457031 83.601562 C 94.945312 82.789062 95.402344 81.960938 95.824219 81.121094 Z M 95.824219 81.121094 "/>
</g>
<mask id="mask49">
  <g filter="url(#alpha)">
<rect x="0" y="0" width="300" height="90" style="fill:rgb(0%,0%,0%);fill-opacity:0.971;stroke:none;"/>
  </g>
</mask>
<clipPath id="clip54">
  <rect x="0" y="0" width="300" height="90"/>
</clipPath>
<g id="surface164" clip-path="url(#clip54)">
<path style=" stroke:none;fill-rule:evenodd;fill:rgb(99.607843%,100%,99.607843%);fill-opacity:1;" d="M 102.066406 78.75 C 103.09375 78.726562 104.121094 78.75 105.144531 78.820312 C 105.671875 80.003906 106.210938 81.175781 106.769531 82.34375 C 107.699219 81.152344 108.640625 79.964844 109.59375 78.785156 C 110.617188 78.738281 111.644531 78.738281 112.671875 78.785156 C 112.183594 81.453125 111.726562 84.121094 111.304688 86.800781 C 110.476562 86.800781 109.648438 86.800781 108.824219 86.800781 C 109.078125 85.265625 109.320312 83.730469 109.550781 82.199219 C 108.707031 83.277344 107.867188 84.355469 107.027344 85.433594 C 106.515625 85.53125 106 85.53125 105.488281 85.433594 C 104.980469 84.335938 104.480469 83.234375 103.992188 82.128906 C 103.738281 83.667969 103.46875 85.199219 103.179688 86.730469 C 102.351562 86.8125 101.527344 86.824219 100.699219 86.765625 C 101.179688 84.101562 101.636719 81.425781 102.066406 78.75 Z M 102.066406 78.75 "/>
</g>
<mask id="mask50">
  <g filter="url(#alpha)">
<rect x="0" y="0" width="300" height="90" style="fill:rgb(0%,0%,0%);fill-opacity:0.966;stroke:none;"/>
  </g>
</mask>
<clipPath id="clip55">
  <rect x="0" y="0" width="300" height="90"/>
</clipPath>
<g id="surface167" clip-path="url(#clip55)">
<path style=" stroke:none;fill-rule:evenodd;fill:rgb(99.607843%,100%,99.607843%);fill-opacity:1;" d="M 114.210938 78.75 C 115.039062 78.75 115.863281 78.75 116.691406 78.75 C 116.261719 81.433594 115.835938 84.117188 115.40625 86.800781 C 114.582031 86.800781 113.753906 86.800781 112.925781 86.800781 C 113.371094 84.117188 113.800781 81.4375 114.210938 78.75 Z M 114.210938 78.75 "/>
</g>
<mask id="mask51">
  <g filter="url(#alpha)">
<rect x="0" y="0" width="300" height="90" style="fill:rgb(0%,0%,0%);fill-opacity:0.97;stroke:none;"/>
  </g>
</mask>
<clipPath id="clip56">
  <rect x="0" y="0" width="300" height="90"/>
</clipPath>
<g id="surface170" clip-path="url(#clip56)">
<path style=" stroke:none;fill-rule:evenodd;fill:rgb(99.607843%,100%,99.607843%);fill-opacity:1;" d="M 131.144531 78.75 C 132.886719 78.71875 134.625 78.753906 136.359375 78.859375 C 137.9375 79.25 138.894531 80.125 139.226562 81.480469 C 139.433594 83.925781 138.191406 85.613281 135.503906 86.550781 C 135.109375 86.644531 134.710938 86.714844 134.308594 86.765625 C 132.796875 86.8125 131.285156 86.8125 129.773438 86.765625 C 130.257812 84.101562 130.714844 81.425781 131.144531 78.75 Z M 133.28125 80.691406 C 133.910156 80.679688 134.535156 80.691406 135.164062 80.726562 C 136.414062 81.085938 136.914062 81.816406 136.660156 82.917969 C 136.328125 83.988281 135.515625 84.621094 134.222656 84.824219 C 133.679688 84.859375 133.140625 84.871094 132.597656 84.859375 C 132.832031 83.472656 133.0625 82.082031 133.28125 80.691406 Z M 133.28125 80.691406 "/>
</g>
<mask id="mask52">
  <g filter="url(#alpha)">
<rect x="0" y="0" width="300" height="90" style="fill:rgb(0%,0%,0%);fill-opacity:0.972;stroke:none;"/>
  </g>
</mask>
<clipPath id="clip57">
  <rect x="0" y="0" width="300" height="90"/>
</clipPath>
<g id="surface173" clip-path="url(#clip57)">
<path style=" stroke:none;fill-rule:evenodd;fill:rgb(99.607843%,100%,99.607843%);fill-opacity:1;" d="M 143.03125 78.75 C 144.027344 78.75 145.023438 78.75 146.023438 78.75 C 146.734375 81.433594 147.449219 84.117188 148.160156 86.800781 C 147.277344 86.8125 146.394531 86.800781 145.511719 86.765625 C 145.398438 86.359375 145.28125 85.949219 145.167969 85.542969 C 143.972656 85.507812 142.773438 85.496094 141.578125 85.507812 C 141.40625 85.945312 141.179688 86.367188 140.890625 86.765625 C 140.007812 86.8125 139.125 86.8125 138.242188 86.765625 C 139.851562 84.09375 141.445312 81.421875 143.03125 78.75 Z M 144.054688 81.195312 C 144.109375 81.203125 144.152344 81.226562 144.183594 81.265625 C 144.375 82.058594 144.5625 82.847656 144.742188 83.636719 C 144.054688 83.652344 143.371094 83.636719 142.6875 83.601562 C 143.203125 82.820312 143.660156 82.019531 144.054688 81.195312 Z M 144.054688 81.195312 "/>
</g>
<mask id="mask53">
  <g filter="url(#alpha)">
<rect x="0" y="0" width="300" height="90" style="fill:rgb(0%,0%,0%);fill-opacity:0.968;stroke:none;"/>
  </g>
</mask>
<clipPath id="clip58">
  <rect x="0" y="0" width="300" height="90"/>
</clipPath>
<g id="surface176" clip-path="url(#clip58)">
<path style=" stroke:none;fill-rule:evenodd;fill:rgb(99.607843%,100%,99.607843%);fill-opacity:1;" d="M 148.503906 78.75 C 151.011719 78.75 153.519531 78.75 156.027344 78.75 C 155.921875 79.394531 155.835938 80.042969 155.773438 80.691406 C 154.894531 80.667969 154.027344 80.691406 153.164062 80.761719 C 152.824219 82.773438 152.496094 84.789062 152.179688 86.800781 C 151.355469 86.800781 150.527344 86.800781 149.699219 86.800781 C 150.003906 84.78125 150.34375 82.769531 150.726562 80.761719 C 149.875 80.691406 149.019531 80.667969 148.160156 80.691406 C 148.257812 80.039062 148.375 79.394531 148.503906 78.75 Z M 148.503906 78.75 "/>
</g>
<mask id="mask54">
  <g filter="url(#alpha)">
<rect x="0" y="0" width="300" height="90" style="fill:rgb(0%,0%,0%);fill-opacity:0.971;stroke:none;"/>
  </g>
</mask>
<clipPath id="clip59">
  <rect x="0" y="0" width="300" height="90"/>
</clipPath>
<g id="surface179" clip-path="url(#clip59)">
<path style=" stroke:none;fill-rule:evenodd;fill:rgb(99.607843%,100%,99.607843%);fill-opacity:1;" d="M 158.507812 78.75 C 159.5 78.726562 160.484375 78.75 161.460938 78.820312 C 162.1875 81.476562 162.882812 84.136719 163.554688 86.800781 C 162.671875 86.800781 161.785156 86.800781 160.902344 86.800781 C 160.796875 86.371094 160.710938 85.941406 160.648438 85.507812 C 159.449219 85.496094 158.253906 85.507812 157.054688 85.542969 C 156.820312 85.933594 156.589844 86.328125 156.371094 86.730469 C 155.488281 86.800781 154.605469 86.824219 153.71875 86.800781 C 155.269531 84.101562 156.867188 81.417969 158.507812 78.75 Z M 159.535156 81.121094 C 159.765625 81.945312 159.964844 82.785156 160.132812 83.636719 C 159.476562 83.660156 158.820312 83.636719 158.167969 83.566406 C 158.625 82.75 159.082031 81.933594 159.535156 81.121094 Z M 159.535156 81.121094 "/>
</g>
<mask id="mask55">
  <g filter="url(#alpha)">
<rect x="0" y="0" width="300" height="90" style="fill:rgb(0%,0%,0%);fill-opacity:0.968;stroke:none;"/>
  </g>
</mask>
<clipPath id="clip60">
  <rect x="0" y="0" width="300" height="90"/>
</clipPath>
<g id="surface182" clip-path="url(#clip60)">
<path style=" stroke:none;fill-rule:evenodd;fill:rgb(99.607843%,100%,99.607843%);fill-opacity:1;" d="M 187.925781 78.75 C 188.753906 78.75 189.582031 78.75 190.40625 78.75 C 190.09375 80.765625 189.75 82.78125 189.382812 84.789062 C 190.632812 84.859375 191.890625 84.882812 193.144531 84.859375 C 193.082031 85.507812 192.996094 86.15625 192.886719 86.800781 C 190.808594 86.800781 188.726562 86.800781 186.644531 86.800781 C 187.054688 84.117188 187.484375 81.433594 187.925781 78.75 Z M 187.925781 78.75 "/>
</g>
<mask id="mask56">
  <g filter="url(#alpha)">
<rect x="0" y="0" width="300" height="90" style="fill:rgb(0%,0%,0%);fill-opacity:0.97;stroke:none;"/>
  </g>
</mask>
<clipPath id="clip61">
  <rect x="0" y="0" width="300" height="90"/>
</clipPath>
<g id="surface185" clip-path="url(#clip61)">
<path style=" stroke:none;fill-rule:evenodd;fill:rgb(99.607843%,100%,99.607843%);fill-opacity:1;" d="M 194.683594 78.75 C 195.511719 78.738281 196.335938 78.75 197.164062 78.785156 C 196.796875 80.558594 196.527344 82.34375 196.351562 84.140625 C 196.773438 84.859375 197.441406 85.085938 198.359375 84.824219 C 198.804688 84.644531 199.128906 84.371094 199.34375 83.996094 C 199.714844 82.28125 200.027344 80.554688 200.285156 78.820312 C 201.089844 78.75 201.902344 78.726562 202.722656 78.75 C 202.484375 80.453125 202.214844 82.15625 201.910156 83.855469 C 201.261719 85.800781 199.738281 86.828125 197.335938 86.945312 C 194.804688 86.769531 193.648438 85.621094 193.871094 83.496094 C 194.136719 81.910156 194.410156 80.328125 194.683594 78.75 Z M 194.683594 78.75 "/>
</g>
<mask id="mask57">
  <g filter="url(#alpha)">
<rect x="0" y="0" width="300" height="90" style="fill:rgb(0%,0%,0%);fill-opacity:0.968;stroke:none;"/>
  </g>
</mask>
<clipPath id="clip62">
  <rect x="0" y="0" width="300" height="90"/>
</clipPath>
<g id="surface188" clip-path="url(#clip62)">
<path style=" stroke:none;fill-rule:evenodd;fill:rgb(99.607843%,100%,99.607843%);fill-opacity:1;" d="M 203.664062 78.75 C 206.199219 78.726562 208.738281 78.75 211.273438 78.820312 C 211.144531 79.441406 211.03125 80.066406 210.933594 80.691406 C 210.078125 80.691406 209.222656 80.691406 208.367188 80.691406 C 208.050781 82.703125 207.722656 84.71875 207.382812 86.730469 C 206.578125 86.800781 205.765625 86.824219 204.945312 86.800781 C 205.25 84.765625 205.566406 82.726562 205.886719 80.691406 C 205.058594 80.691406 204.234375 80.691406 203.40625 80.691406 C 203.484375 80.042969 203.570312 79.394531 203.664062 78.75 Z M 203.664062 78.75 "/>
</g>
<mask id="mask58">
  <g filter="url(#alpha)">
<rect x="0" y="0" width="300" height="90" style="fill:rgb(0%,0%,0%);fill-opacity:0.966;stroke:none;"/>
  </g>
</mask>
<clipPath id="clip63">
  <rect x="0" y="0" width="300" height="90"/>
</clipPath>
<g id="surface191" clip-path="url(#clip63)">
<path style=" stroke:none;fill-rule:evenodd;fill:rgb(99.607843%,100%,99.607843%);fill-opacity:1;" d="M 212.300781 78.75 C 213.128906 78.75 213.953125 78.75 214.78125 78.75 C 214.351562 81.433594 213.925781 84.117188 213.496094 86.800781 C 212.671875 86.800781 211.84375 86.800781 211.019531 86.800781 C 211.460938 84.117188 211.890625 81.4375 212.300781 78.75 Z M 212.300781 78.75 "/>
</g>
<mask id="mask59">
  <g filter="url(#alpha)">
<rect x="0" y="0" width="300" height="90" style="fill:rgb(0%,0%,0%);fill-opacity:0.971;stroke:none;"/>
  </g>
</mask>
<clipPath id="clip64">
  <rect x="0" y="0" width="300" height="90"/>
</clipPath>
<g id="surface194" clip-path="url(#clip64)">
<path style=" stroke:none;fill-rule:evenodd;fill:rgb(99.607843%,100%,99.607843%);fill-opacity:1;" d="M 227.265625 78.75 C 228.125 78.726562 228.976562 78.75 229.832031 78.820312 C 230.75 80.25 231.648438 81.6875 232.527344 83.136719 C 232.78125 81.675781 233.023438 80.210938 233.253906 78.75 C 234.078125 78.75 234.90625 78.75 235.734375 78.75 C 235.296875 81.414062 234.839844 84.074219 234.363281 86.730469 C 233.539062 86.824219 232.710938 86.824219 231.882812 86.730469 C 230.964844 85.304688 230.066406 83.867188 229.191406 82.417969 C 228.914062 83.875 228.671875 85.335938 228.464844 86.800781 C 227.636719 86.800781 226.808594 86.800781 225.984375 86.800781 C 226.425781 84.117188 226.855469 81.4375 227.265625 78.75 Z M 227.265625 78.75 "/>
</g>
</defs>
<g id="surface1">
<use xlink:href="#surface5"/>
<use xlink:href="#surface8"/>
<use xlink:href="#surface11" mask="url(#mask0)"/>
<use xlink:href="#surface14" mask="url(#mask1)"/>
<use xlink:href="#surface17" mask="url(#mask2)"/>
<use xlink:href="#surface20" mask="url(#mask3)"/>
<use xlink:href="#surface23" mask="url(#mask4)"/>
<use xlink:href="#surface26" mask="url(#mask5)"/>
<use xlink:href="#surface29" mask="url(#mask6)"/>
<use xlink:href="#surface32" mask="url(#mask7)"/>
<use xlink:href="#surface35" mask="url(#mask8)"/>
<use xlink:href="#surface38" mask="url(#mask9)"/>
<use xlink:href="#surface41" mask="url(#mask10)"/>
<use xlink:href="#surface44" mask="url(#mask11)"/>
<use xlink:href="#surface47" mask="url(#mask12)"/>
<use xlink:href="#surface50" mask="url(#mask13)"/>
<use xlink:href="#surface53" mask="url(#mask14)"/>
<use xlink:href="#surface56"/>
<use xlink:href="#surface59" mask="url(#mask15)"/>
<use xlink:href="#surface62"/>
<use xlink:href="#surface65" mask="url(#mask16)"/>
<use xlink:href="#surface68" mask="url(#mask17)"/>
<use xlink:href="#surface71" mask="url(#mask18)"/>
<path style=" stroke:none;fill-rule:evenodd;fill:rgb(61.56863%,57.254905%,70.980394%);fill-opacity:1;" d="M 253.519531 26.5625 C 256.101562 26.488281 258.695312 26.464844 261.304688 26.488281 C 261.328125 26.628906 261.296875 26.746094 261.21875 26.847656 C 261.21875 26.753906 261.21875 26.65625 261.21875 26.5625 C 258.652344 26.5625 256.085938 26.5625 253.519531 26.5625 Z M 253.519531 26.5625 "/>
<path style=" stroke:none;fill-rule:evenodd;fill:rgb(98.823529%,98.823529%,99.215686%);fill-opacity:1;" d="M 250.101562 28.933594 C 248.421875 29.050781 246.742188 29.125 245.054688 29.148438 C 244.871094 29.574219 244.816406 30.003906 244.882812 30.441406 C 246.546875 30.058594 248.011719 30.347656 249.289062 31.304688 C 250.050781 32.054688 250.335938 32.914062 250.140625 33.894531 C 249.59375 36.054688 248.011719 37.3125 245.394531 37.667969 C 243.636719 37.898438 242.011719 37.609375 240.523438 36.804688 C 240.265625 36.683594 240.0625 36.515625 239.921875 36.300781 C 240.53125 35.554688 241.175781 34.824219 241.847656 34.109375 C 242.988281 35.019531 244.316406 35.273438 245.824219 34.863281 C 246.792969 34.433594 246.992188 33.832031 246.421875 33.066406 C 245.476562 32.675781 244.59375 32.757812 243.769531 33.320312 C 242.894531 33.070312 242.011719 32.839844 241.121094 32.636719 C 241.082031 32.605469 241.054688 32.570312 241.035156 32.527344 C 241.589844 30.539062 242.148438 28.550781 242.703125 26.5625 C 245.277344 26.488281 247.855469 26.464844 250.441406 26.488281 C 250.320312 27.304688 250.207031 28.117188 250.101562 28.933594 Z M 250.101562 28.933594 "/>
<path style=" stroke:none;fill-rule:evenodd;fill:rgb(99.215686%,99.215686%,99.215686%);fill-opacity:1;" d="M 253.519531 26.5625 C 256.085938 26.5625 258.652344 26.5625 261.21875 26.5625 C 261.21875 26.65625 261.21875 26.753906 261.21875 26.847656 C 261.066406 27.609375 260.953125 28.378906 260.875 29.148438 C 259.191406 29.148438 257.511719 29.148438 255.828125 29.148438 C 255.753906 29.519531 255.667969 29.890625 255.574219 30.261719 C 255.601562 30.324219 255.628906 30.382812 255.660156 30.441406 C 257.097656 30.117188 258.441406 30.296875 259.679688 30.984375 C 260.808594 31.816406 261.21875 32.859375 260.917969 34.109375 C 260.253906 36.152344 258.671875 37.339844 256.171875 37.667969 C 254.132812 37.925781 252.324219 37.507812 250.742188 36.410156 C 250.683594 36.335938 250.683594 36.265625 250.742188 36.195312 C 251.253906 35.617188 251.765625 35.042969 252.28125 34.46875 C 252.394531 34.359375 252.523438 34.265625 252.664062 34.179688 C 253.886719 35.082031 255.253906 35.289062 256.769531 34.792969 C 257.453125 34.445312 257.695312 33.957031 257.496094 33.320312 C 256.972656 32.855469 256.328125 32.703125 255.574219 32.851562 C 255.226562 33.015625 254.871094 33.148438 254.503906 33.246094 C 253.632812 33.074219 252.777344 32.859375 251.9375 32.601562 C 252.386719 30.570312 252.914062 28.558594 253.519531 26.5625 Z M 253.519531 26.5625 "/>
<use xlink:href="#surface74" mask="url(#mask19)"/>
<use xlink:href="#surface77" mask="url(#mask20)"/>
<path style=" stroke:none;fill-rule:evenodd;fill:rgb(80.392158%,78.431374%,85.09804%);fill-opacity:1;" d="M 250.101562 28.933594 C 250.101562 29.003906 250.101562 29.078125 250.101562 29.148438 C 248.417969 29.148438 246.734375 29.148438 245.054688 29.148438 C 246.742188 29.125 248.421875 29.050781 250.101562 28.933594 Z M 250.101562 28.933594 "/>
<use xlink:href="#surface80" mask="url(#mask21)"/>
<use xlink:href="#surface83" mask="url(#mask22)"/>
<use xlink:href="#surface86" mask="url(#mask23)"/>
<use xlink:href="#surface89" mask="url(#mask24)"/>
<use xlink:href="#surface92" mask="url(#mask25)"/>
<use xlink:href="#surface95" mask="url(#mask26)"/>
<use xlink:href="#surface98" mask="url(#mask27)"/>
<use xlink:href="#surface101" mask="url(#mask28)"/>
<use xlink:href="#surface104" mask="url(#mask29)"/>
<use xlink:href="#surface107" mask="url(#mask30)"/>
<use xlink:href="#surface110" mask="url(#mask31)"/>
<use xlink:href="#surface113" mask="url(#mask32)"/>
<use xlink:href="#surface116" mask="url(#mask33)"/>
<use xlink:href="#surface119" mask="url(#mask34)"/>
<use xlink:href="#surface122" mask="url(#mask35)"/>
<use xlink:href="#surface125" mask="url(#mask36)"/>
<use xlink:href="#surface128" mask="url(#mask37)"/>
<use xlink:href="#surface131" mask="url(#mask38)"/>
<use xlink:href="#surface134" mask="url(#mask39)"/>
<use xlink:href="#surface137" mask="url(#mask40)"/>
<use xlink:href="#surface140" mask="url(#mask41)"/>
<use xlink:href="#surface143" mask="url(#mask42)"/>
<use xlink:href="#surface146" mask="url(#mask43)"/>
<use xlink:href="#surface149" mask="url(#mask44)"/>
<use xlink:href="#surface152" mask="url(#mask45)"/>
<use xlink:href="#surface155" mask="url(#mask46)"/>
<use xlink:href="#surface158" mask="url(#mask47)"/>
<use xlink:href="#surface161" mask="url(#mask48)"/>
<use xlink:href="#surface164" mask="url(#mask49)"/>
<use xlink:href="#surface167" mask="url(#mask50)"/>
<use xlink:href="#surface170" mask="url(#mask51)"/>
<use xlink:href="#surface173" mask="url(#mask52)"/>
<use xlink:href="#surface176" mask="url(#mask53)"/>
<use xlink:href="#surface179" mask="url(#mask54)"/>
<use xlink:href="#surface182" mask="url(#mask55)"/>
<use xlink:href="#surface185" mask="url(#mask56)"/>
<use xlink:href="#surface188" mask="url(#mask57)"/>
<use xlink:href="#surface191" mask="url(#mask58)"/>
<use xlink:href="#surface194" mask="url(#mask59)"/>
</g>
</svg>
